<svg width="36" height="36" viewBox="0 0 36 36" fill="none" xmlns="http://www.w3.org/2000/svg">
<g filter="url(#filter0_d_45_109)">
<g clip-path="url(#clip0_45_109)">
<path d="M4.57544 27.9998H14.0686C18.5701 27.9998 22.2193 24.3506 22.2193 19.8491H12.7261C8.22463 19.8491 4.57544 23.4983 4.57544 27.9998Z" fill="#F22BB2"/>
<path d="M5 8.15069V20.137C9.5015 20.137 13.1507 16.4878 13.1507 11.9863V0C8.64919 0 5 3.64919 5 8.15069Z" fill="#8C30F5"/>
<path d="M31.4246 0H21.9314C17.4299 0 13.7808 3.64919 13.7808 8.15068H23.2739C27.7754 8.15068 31.4246 4.5015 31.4246 0Z" fill="#FE9A22"/>
<path d="M31.4246 19.3701V7.38379C26.9231 7.38379 23.2739 11.033 23.2739 15.5345V27.5208C27.7754 27.5208 31.4246 23.8716 31.4246 19.3701Z" fill="#2EC5CE"/>
</g>
</g>
<defs>
<filter id="filter0_d_45_109" x="0" y="0" width="36" height="36" filterUnits="userSpaceOnUse" color-interpolation-filters="sRGB">
<feFlood flood-opacity="0" result="BackgroundImageFix"/>
<feColorMatrix in="SourceAlpha" type="matrix" values="0 0 0 0 0 0 0 0 0 0 0 0 0 0 0 0 0 0 127 0" result="hardAlpha"/>
<feOffset dy="4"/>
<feGaussianBlur stdDeviation="2"/>
<feComposite in2="hardAlpha" operator="out"/>
<feColorMatrix type="matrix" values="0 0 0 0 0 0 0 0 0 0 0 0 0 0 0 0 0 0 0.25 0"/>
<feBlend mode="normal" in2="BackgroundImageFix" result="effect1_dropShadow_45_109"/>
<feBlend mode="normal" in="SourceGraphic" in2="effect1_dropShadow_45_109" result="shape"/>
</filter>
<clipPath id="clip0_45_109">
<rect width="28" height="28" fill="white" transform="translate(4)"/>
</clipPath>
</defs>
</svg>
